<svg width="84" height="101" viewBox="0 0 84 101" fill="none" xmlns="http://www.w3.org/2000/svg">
<path fill-rule="evenodd" clip-rule="evenodd" d="M42.8934 13.406C52.9558 13.406 63.3636 21.2459 67.0521 26.2487C70.1532 30.4549 71.8229 49.4749 71.8229 62.3287C71.8229 65.017 73.2988 70.0847 72.8681 72.6562C71.2898 82.0791 64.4134 89.9818 50.8035 89.9818C37.1936 89.9818 27.4356 84.5593 17.3197 70.0004C12.4114 70.0004 10.0327 66.2169 9.99813 60.2462C9.96358 54.2755 14.7359 52.1031 14.7359 52.1031C14.7359 52.1031 13.0343 28.5402 17.3197 22.4055C21.6051 16.2708 32.831 13.406 42.8934 13.406Z" fill="#F7C39F"/>
<path fill-rule="evenodd" clip-rule="evenodd" d="M38.6589 10.0744C45.012 9.42774 51.2376 9.97104 57.4986 11.0952C57.9771 11.1823 58.2482 11.4978 58.3491 11.877C61.2981 12.0124 64.2505 12.2299 67.1957 12.392C68.2644 12.4508 68.8703 13.5123 68.383 14.4708C68.2857 14.6612 68.1845 14.8465 68.0817 15.0317L68.2109 14.9889C69.0968 14.7032 70.0539 14.5624 70.9172 15.0159C72.0159 15.593 72.4467 16.8665 72.2039 18.0386C72.1417 18.3378 72.0373 18.6246 71.9186 18.9045C72.1596 18.8884 72.4024 18.8938 72.6434 18.9258C73.9265 19.0968 74.8799 20.0855 74.9472 21.4019C75.0465 23.3896 73.7723 25.4062 72.2713 26.8293C72.4891 27.2802 72.5725 27.811 72.482 28.3489C72.3012 29.4124 71.5218 30.0492 70.6184 30.4646C70.9951 31.6672 71.1732 32.9244 71.0682 34.2093C71.0331 34.6382 70.6599 34.9925 70.2659 35.0794C71.7343 39.1433 72.4776 43.5064 73.012 47.7579C73.393 50.7827 73.5809 53.8252 73.6038 56.8728C73.6149 58.2488 73.5924 59.6263 73.5349 61.0024L73.5118 61.5184C73.4409 63.006 73.4373 64.568 73.1715 66.0396C74.0789 67.5909 74.4439 69.5167 74.5981 71.2551C74.7895 73.4069 74.4865 75.6264 73.8111 77.6733C71.2627 85.4075 63.5718 90.2883 55.8468 91.5568C48.6963 92.7307 40.4222 91.1506 36.2434 84.622C36.1779 84.5187 36.3179 84.4333 36.3994 84.501C39.389 86.9448 42.8569 88.035 46.6247 88.5658C53.1391 89.4816 60.4615 87.9281 65.6893 83.8099C68.1987 81.8326 70.0081 78.954 70.8039 75.8562C71.2098 74.2728 71.3498 72.6213 71.1901 70.9916C71.027 69.3386 70.2989 67.9278 69.8399 66.3656C69.6857 65.8381 69.8487 65.3483 70.1695 64.9993C70.2597 63.7308 70.4725 62.4519 70.5539 61.1873C70.6443 59.7496 70.6994 58.3121 70.7189 56.8728C70.7561 53.8873 70.632 50.8965 70.3822 47.9237C69.9249 42.4799 68.711 37.1682 67.9986 31.7707C67.7348 32.0085 67.3567 32.1061 66.9604 31.8983L66.9194 31.8757L66.7032 31.7512C66.6908 31.7512 66.6766 31.753 66.664 31.7546C65.1844 31.8991 63.6498 31.6925 62.232 31.2487C60.7486 30.7858 59.3718 30.0732 58.1417 29.1238C57.908 30.3153 57.8103 31.5195 57.8087 32.7343C57.807 33.4932 57.0077 33.887 56.3733 33.5628C53.5609 32.1269 50.8743 30.4723 48.3242 28.6126C48.0263 30.1463 47.7287 31.6798 47.4291 33.2153C47.3141 33.8069 46.5643 34.0456 46.084 33.7641C44.1738 32.6471 42.5239 31.1848 41.1806 29.446C40.9125 29.9616 40.6435 30.477 40.3727 30.9913L39.9649 31.7617C39.5627 32.5188 39.0239 33.3562 38.1432 33.5983C37.211 33.8548 36.4329 33.2475 36.1194 32.3995C36.0237 32.136 35.9351 31.8651 35.8536 31.5925C35.0594 33.415 34.1629 35.1963 33.1492 36.8956C31.6287 39.4445 29.8032 41.7157 27.9834 44.0456C27.4305 44.753 26.4842 44.0777 26.408 43.3903C26.3637 42.9859 26.3265 42.5798 26.2944 42.1753C25.2339 44.3264 24.1274 46.4573 22.9218 48.5265L23.0944 49.2064V49.2064C23.5919 51.2154 24.0049 53.2386 24.454 55.2582C24.599 55.9098 24.2545 56.8414 23.497 56.9524C22.5922 57.085 21.7361 57.5497 20.8092 57.23C19.7986 56.8812 19.5988 56.0032 19.1218 55.1709C19.0266 55.0051 18.9159 54.8528 18.7968 54.7082L18.7665 54.7477V54.7477C18.692 54.8459 18.5148 54.739 18.5591 54.6268L18.611 54.4971V54.4971C18.2011 54.0598 17.7106 53.695 17.2596 53.3025C16.1878 53.121 14.9822 53.3198 14.2438 53.7575C12.562 54.7548 11.7895 56.8105 11.7736 58.7006C11.7541 60.913 12.4362 63.3997 13.5881 65.2914C14.0951 66.1233 14.7898 66.8748 15.7075 67.2437C16.6186 67.6105 17.6057 67.4967 18.5325 67.8421C19.1457 68.072 19.5232 68.7561 19.1528 69.3758C19.128 69.4187 19.0996 69.4577 19.0729 69.4989L19.3485 69.8666C19.5381 70.1214 19.7358 70.3941 19.9201 70.6779C20.3915 71.2232 20.8877 71.7487 21.368 72.2848C22.2557 73.2733 23.1171 74.2888 23.9906 75.2915C24.8148 76.2375 25.6867 77.1262 26.5852 78.0009C27.4341 78.8293 28.4938 79.5257 29.2735 80.4094C30.0319 81.2715 30.2376 82.7765 28.9898 83.2755C27.6094 83.8288 26.3874 82.532 25.4582 81.6674L25.4191 81.6312C23.7157 80.0556 22.1775 78.2551 20.956 76.2726C19.7459 77.1006 17.9958 77.1797 16.7909 76.3519C16.1568 75.9164 15.6703 75.1844 15.4339 74.3882C15.211 74.4384 14.9882 74.4678 14.771 74.4644C14.6591 74.5296 14.547 74.593 14.4336 74.6522C13.5349 75.1223 12.431 74.9123 12.0199 73.9128C11.6455 73.0054 12.0313 71.975 12.3685 71.1008L12.4381 70.9202C12.6295 70.4216 12.8404 69.8783 13.1027 69.3671C12.3725 68.8148 11.7486 68.1289 11.2206 67.3488C9.44671 64.7214 8.56064 60.879 8.95228 57.744C9.18798 55.8523 10.0721 53.8929 11.52 52.6173L11.467 52.4783V52.4783C11.0611 51.4436 10.6924 50.4049 10.4533 49.3113C10.1733 48.0324 10.0367 46.7071 9.91279 45.4049C9.65051 42.6546 9.7214 39.8419 10.0705 37.1023C10.7262 31.9454 12.3885 26.8829 15.3391 22.5918C14.5025 21.5851 13.8399 20.4006 14.1853 19.0381C14.3432 18.4126 14.7027 17.8196 15.2452 17.4614C15.5445 17.2639 15.9009 17.2336 16.2004 17.0697L16.2904 17.0199C16.422 16.9427 16.3214 16.9509 16.2429 16.5923C15.9328 15.16 16.1898 13.7761 17.7581 13.3005C19.2343 12.8534 20.6308 13.8028 21.5044 14.9339C23.7905 13.3039 26.8032 12.4508 29.4525 11.7258C32.4652 10.9044 35.5557 10.3916 38.6589 10.0744ZM13.9658 58.1162C13.955 56.9494 15.0555 56.2298 16.1384 56.4206C16.8656 56.5478 17.4722 56.984 18.0419 57.4349L18.3196 57.6558C19.0132 58.2031 19.8096 58.7932 20.2231 59.5681C20.8291 60.7117 19.5481 62.2506 18.3518 61.449C17.5313 60.8963 17.0053 60.0106 16.4671 59.1879L16.4113 59.103C16.1668 58.7343 15.9524 58.3424 15.6172 58.0467L15.5449 57.983C15.4347 57.8887 15.3164 57.8025 15.1742 57.7617C14.8998 57.6824 14.3916 57.7935 14.2706 58.1218L14.2598 58.1554C14.2155 58.3212 13.9675 58.2854 13.9658 58.1162Z" fill="black"/>
<path fill-rule="evenodd" clip-rule="evenodd" d="M56.1846 75.9819C54.9634 76.4554 53.5206 76.5672 52.2601 76.1638C51.0549 75.7779 49.9605 74.9192 49.2983 73.8392C48.7084 72.8773 48.4621 71.7357 48.8107 70.5978C48.8274 70.5433 48.8815 70.5084 48.9337 70.4949C49.2189 70.7509 49.395 71.0053 49.5711 71.2584C49.8679 71.6851 50.1653 72.1074 50.5736 72.4723C51.1677 73.003 51.9681 73.4341 52.7625 73.5762C53.5402 73.7157 54.3362 73.5924 55.0327 73.2253C55.4562 73.0021 55.7986 72.7037 56.1377 72.404C56.507 72.0776 56.8703 71.7463 57.3789 71.562C57.7864 71.4143 58.2145 71.5389 58.5433 71.786C58.8968 72.0516 59.1509 72.4673 59.1368 72.9019C59.115 73.5752 58.8162 74.1369 58.3826 74.6003C57.7964 75.2268 56.9676 75.6782 56.1846 75.9819ZM54.7348 59.2017C56.0935 60.0163 58.1638 61.9158 56.7021 63.9353C54.9816 65.716 52.5044 63.6743 51.2837 62.751C50.1518 62.0353 48.88 63.8759 49.9302 64.7115C58.7511 71.1529 62.3308 59.4147 55.422 58.2439C54.6613 58.1149 54.3788 58.9496 54.7348 59.2017ZM40.4435 47.9145C42.2954 47.8272 43.9273 48.6475 45.6921 49.0202C47.323 49.3648 48.9298 49.1579 50.5159 48.7195C53.09 48.008 54.1541 51.8947 51.6151 52.6522C49.7661 53.2038 47.8192 53.2421 45.9219 52.9578C44.2365 52.7051 42.8236 51.8958 41.2167 51.4246C39.8376 51.0204 38.2153 51.1884 36.7589 51.3787L36.1936 51.4537C35.3533 51.5653 34.5085 51.6773 33.6765 51.8393C32.9546 51.9801 32.234 52.2376 31.4972 52.2674C31.4135 52.271 31.3426 52.1638 31.3953 52.0922C32.2513 50.9332 33.9009 50.0187 35.2131 49.4088L35.302 49.3677C36.9217 48.6228 38.6401 47.9993 40.4435 47.9145ZM39.7651 56.4609L39.7648 56.4209C39.7674 55.2892 40.4356 52.7052 42.0874 52.7052C43.1193 52.7052 43.7458 54.4638 43.8542 56.2766L43.858 56.3505C43.9059 57.4776 43.5923 59.9411 42.0874 59.9411C40.5665 59.9411 39.7807 57.6078 39.7651 56.4609V56.4609ZM64.0837 56.4609L64.0839 56.4209C64.0814 55.2892 63.4131 52.7052 61.7613 52.7052C60.7552 52.7052 60.1345 54.3769 60.0036 56.1408L59.9945 56.2766C59.9293 57.3656 60.2226 59.9411 61.7613 59.9411C63.2822 59.9411 64.068 57.6078 64.0837 56.4609V56.4609ZM64.0583 46.5361L64.1765 46.5387C66.1068 46.6047 68.0923 47.7325 68.6076 49.6271C68.6343 49.7254 68.5114 49.7916 68.4385 49.7241C66.8513 48.2584 64.7167 49.659 63.1274 50.3931L62.5436 50.6591C60.4947 51.5993 58.1644 52.7047 55.8894 52.004C54.8089 51.6712 54.1227 50.5762 54.4309 49.4702C54.7051 48.4861 55.9094 47.6591 56.9525 48.0143L56.9998 48.0312C57.8472 48.351 58.8893 48.027 59.7645 47.7076L60.4835 47.4413C61.6397 47.0086 62.8012 46.5245 64.0583 46.5361V46.5361Z" fill="black"/>
</svg>
