<svg width="72" height="35" viewBox="0 0 72 35" fill="none" xmlns="http://www.w3.org/2000/svg">
<path d="M0.112216 16.6193V14.0497C1.58665 14.0497 2.60938 13.7557 3.1804 13.1676C3.75142 12.5795 4.03693 11.6293 4.03693 10.3168V7.49148C4.03693 5.91477 4.25426 4.65341 4.68892 3.70739C5.1321 2.75284 5.74574 2.03267 6.52983 1.54688C7.32244 1.06108 8.25994 0.737215 9.34233 0.575282C10.4247 0.413351 11.6094 0.332386 12.8963 0.332386V4.39773C11.8906 4.39773 11.1236 4.52983 10.5952 4.79403C10.0753 5.04972 9.72159 5.45028 9.53409 5.99574C9.34659 6.53267 9.25284 7.21449 9.25284 8.04119V11.7741C9.25284 12.4219 9.13352 13.0398 8.89489 13.6278C8.65625 14.2074 8.21307 14.723 7.56534 15.1747C6.91761 15.6179 5.9929 15.9716 4.79119 16.2358C3.58949 16.4915 2.02983 16.6193 0.112216 16.6193ZM12.8963 32.6889C11.6094 32.6889 10.4247 32.608 9.34233 32.446C8.25994 32.2841 7.32244 31.9602 6.52983 31.4744C5.74574 30.9886 5.1321 30.2685 4.68892 29.3139C4.25426 28.3679 4.03693 27.1065 4.03693 25.5298V22.6918C4.03693 21.3793 3.75142 20.429 3.1804 19.8409C2.60938 19.2528 1.58665 18.9588 0.112216 18.9588V16.3892C2.02983 16.3892 3.58949 16.5213 4.79119 16.7855C5.9929 17.0412 6.91761 17.3949 7.56534 17.8466C8.21307 18.2898 8.65625 18.8054 8.89489 19.3935C9.13352 19.973 9.25284 20.5909 9.25284 21.2472V24.9801C9.25284 25.7983 9.34659 26.4759 9.53409 27.0128C9.72159 27.5582 10.0753 27.9588 10.5952 28.2145C11.1236 28.4787 11.8906 28.6108 12.8963 28.6108V32.6889ZM0.112216 18.9588V14.0497H4.7017V18.9588H0.112216ZM71.0799 16.3892V18.9588C69.614 18.9588 68.5913 19.2528 68.0117 19.8409C67.4407 20.429 67.1552 21.3793 67.1552 22.6918V25.5298C67.1552 27.1065 66.9336 28.3679 66.4904 29.3139C66.0558 30.2685 65.4421 30.9886 64.6495 31.4744C63.8654 31.9602 62.9322 32.2841 61.8498 32.446C60.7759 32.608 59.5913 32.6889 58.2958 32.6889V28.6108C59.3015 28.6108 60.0643 28.4787 60.5842 28.2145C61.1126 27.9588 61.4705 27.5582 61.658 27.0128C61.8455 26.4759 61.9393 25.7983 61.9393 24.9801V21.2472C61.9393 20.5909 62.0586 19.973 62.2972 19.3935C62.5359 18.8054 62.979 18.2898 63.6268 17.8466C64.2745 17.3949 65.1992 17.0412 66.4009 16.7855C67.6026 16.5213 69.1623 16.3892 71.0799 16.3892ZM58.2958 0.332386C59.5913 0.332386 60.7759 0.413351 61.8498 0.575282C62.9322 0.737215 63.8654 1.06108 64.6495 1.54688C65.4421 2.03267 66.0558 2.75284 66.4904 3.70739C66.9336 4.65341 67.1552 5.91477 67.1552 7.49148V10.3168C67.1552 11.6293 67.4407 12.5795 68.0117 13.1676C68.5913 13.7557 69.614 14.0497 71.0799 14.0497V16.6193C69.1623 16.6193 67.6026 16.4915 66.4009 16.2358C65.1992 15.9716 64.2745 15.6179 63.6268 15.1747C62.979 14.723 62.5359 14.2074 62.2972 13.6278C62.0586 13.0398 61.9393 12.4219 61.9393 11.7741V8.04119C61.9393 7.21449 61.8455 6.53267 61.658 5.99574C61.4705 5.45028 61.1126 5.04972 60.5842 4.79403C60.0643 4.52983 59.3015 4.39773 58.2958 4.39773V0.332386ZM71.0799 14.0497V18.9588H66.4904V14.0497H71.0799Z" fill="#3E51FF"/>
<path d="M20.8384 21.3494L20.8512 14.8168H21.6438L27.9336 7.36364H34.185L25.7347 17.233H24.4435L20.8384 21.3494ZM15.9038 27V0.818181H21.3498V27H15.9038ZM28.1765 27L22.3981 18.4474L26.0288 14.5994L34.5558 27H28.1765ZM36.8569 34.3636V7.36364H42.2262V10.6619H42.4691C42.7077 10.1335 43.0529 9.59659 43.5046 9.05114C43.9648 8.49716 44.5614 8.03693 45.2944 7.67045C46.0359 7.29545 46.9563 7.10795 48.0558 7.10795C49.4876 7.10795 50.8086 7.48295 52.0188 8.23295C53.229 8.97443 54.1964 10.0952 54.9208 11.5952C55.6452 13.0866 56.0075 14.9574 56.0075 17.2074C56.0075 19.3977 55.6538 21.2472 54.9464 22.7557C54.2475 24.2557 53.293 25.3935 52.0827 26.169C50.881 26.9361 49.5344 27.3196 48.043 27.3196C46.9862 27.3196 46.087 27.1449 45.3455 26.7955C44.6126 26.446 44.0117 26.0071 43.543 25.4787C43.0742 24.9418 42.7163 24.4006 42.4691 23.8551H42.3029V34.3636H36.8569ZM42.1879 17.1818C42.1879 18.3494 42.3498 19.3679 42.6737 20.2372C42.9975 21.1065 43.4663 21.7841 44.0799 22.2699C44.6935 22.7472 45.4393 22.9858 46.3171 22.9858C47.2035 22.9858 47.9535 22.7429 48.5671 22.2571C49.1808 21.7628 49.6452 21.081 49.9606 20.2116C50.2844 19.3338 50.4464 18.3239 50.4464 17.1818C50.4464 16.0483 50.2887 15.0511 49.9734 14.1903C49.658 13.3295 49.1935 12.6562 48.5799 12.1705C47.9663 11.6847 47.212 11.4418 46.3171 11.4418C45.4308 11.4418 44.6808 11.6761 44.0671 12.1449C43.462 12.6136 42.9975 13.2784 42.6737 14.1392C42.3498 15 42.1879 16.0142 42.1879 17.1818Z" fill="#151515"/>
</svg>
